<?xml version="1.0" standalone="no"?>
<!DOCTYPE svg PUBLIC "-//W3C//DTD SVG 20010904//EN"
 "http://www.w3.org/TR/2001/REC-SVG-20010904/DTD/svg10.dtd">
<svg version="1.0"
  xmlns="http://www.w3.org/2000/svg" width="120.000000pt" height="120.000000pt" viewBox="0 0 120.000000 120.000000" preserveAspectRatio="xMidYMid meet">

  <g transform="translate(0.000000,120.000000) scale(0.100000,-0.100000)" stroke="none">

    <!-- Y roja -->
    <path fill="#E3322A" d="M227 913 c15 -21 76 -100 136 -175 l107 -137 0 -186 0 -185 125 0
125 0 0 186 0 186 -106 156 c-59 86 -114 165 -122 175 -13 15 -34 17 -154 17
l-139 0 28 -37z"/>

    <!-- Triángulo azul -->
    <path fill="#163E95" d="M530 944 c0 -6 79 -124 180 -271 50 -72 33 -82 145 82 38 55 84 121
103 148 l34 47 -231 0 c-127 0 -231 -3 -231 -6z m309 -86 c-13 -24 -79 -118
-83 -118 -2 0 -24 32 -50 70 l-46 70 95 0 c95 0 96 0 84 -22z"/>

  </g>
</svg>
